<mxfile host="app.diagrams.net" agent="Mozilla/5.0 (Windows NT 10.0; Win64; x64) AppleWebKit/537.36 (KHTML, like Gecko) Chrome/136.0.0.0 Safari/537.36" version="27.0.1">
  <diagram name="Page-1" id="gdk5aPpvohi60svLRi7g">
    <mxGraphModel dx="3494" dy="1987" grid="1" gridSize="10" guides="1" tooltips="1" connect="1" arrows="1" fold="1" page="1" pageScale="1" pageWidth="850" pageHeight="1100" math="0" shadow="0">
      <root>
        <mxCell id="0" />
        <mxCell id="1" parent="0" />
        <mxCell id="RrkPj0W30C4GCfY4QQFr-2" value="" style="shape=umlLifeline;perimeter=lifelinePerimeter;whiteSpace=wrap;html=1;container=1;dropTarget=0;collapsible=0;recursiveResize=0;outlineConnect=0;portConstraint=eastwest;newEdgeStyle={&quot;curved&quot;:0,&quot;rounded&quot;:0};participant=umlActor;" parent="1" vertex="1">
          <mxGeometry x="-830" y="-40" width="30" height="1720" as="geometry" />
        </mxCell>
        <mxCell id="RrkPj0W30C4GCfY4QQFr-3" value="SimpleReaderHomepage" style="shape=umlLifeline;perimeter=lifelinePerimeter;whiteSpace=wrap;html=1;container=1;dropTarget=0;collapsible=0;recursiveResize=0;outlineConnect=0;portConstraint=eastwest;newEdgeStyle={&quot;curved&quot;:0,&quot;rounded&quot;:0};fontSize=14;fontStyle=1;fillColor=#dae8fc;strokeColor=#6c8ebf;" parent="1" vertex="1">
          <mxGeometry x="-690" y="-40" width="200" height="1720" as="geometry" />
        </mxCell>
        <mxCell id="RrkPj0W30C4GCfY4QQFr-4" value="" style="html=1;points=[[0,0,0,0,5],[0,1,0,0,-5],[1,0,0,0,5],[1,1,0,0,-5]];perimeter=orthogonalPerimeter;outlineConnect=0;targetShapes=umlLifeline;portConstraint=eastwest;newEdgeStyle={&quot;curved&quot;:0,&quot;rounded&quot;:0};strokeColor=#000000;fillColor=#dae8fc;" parent="RrkPj0W30C4GCfY4QQFr-3" vertex="1">
          <mxGeometry x="90" y="90" width="10" height="250" as="geometry" />
        </mxCell>
        <mxCell id="RrkPj0W30C4GCfY4QQFr-5" value="SimpleReaderController" style="shape=umlLifeline;perimeter=lifelinePerimeter;whiteSpace=wrap;html=1;container=1;dropTarget=0;collapsible=0;recursiveResize=0;outlineConnect=0;portConstraint=eastwest;newEdgeStyle={&quot;curved&quot;:0,&quot;rounded&quot;:0};fontSize=14;fontStyle=1;fillColor=#dae8fc;strokeColor=#6c8ebf;" parent="1" vertex="1">
          <mxGeometry x="-440" y="-40" width="190" height="2080" as="geometry" />
        </mxCell>
        <mxCell id="RrkPj0W30C4GCfY4QQFr-6" value="" style="html=1;points=[[0,0,0,0,5],[0,1,0,0,-5],[1,0,0,0,5],[1,1,0,0,-5]];perimeter=orthogonalPerimeter;outlineConnect=0;targetShapes=umlLifeline;portConstraint=eastwest;newEdgeStyle={&quot;curved&quot;:0,&quot;rounded&quot;:0};strokeColor=#000000;fillColor=#dae8fc;" parent="RrkPj0W30C4GCfY4QQFr-5" vertex="1">
          <mxGeometry x="90" y="140" width="10" height="150" as="geometry" />
        </mxCell>
        <mxCell id="RrkPj0W30C4GCfY4QQFr-27" value="" style="html=1;points=[[0,0,0,0,5],[0,1,0,0,-5],[1,0,0,0,5],[1,1,0,0,-5]];perimeter=orthogonalPerimeter;outlineConnect=0;targetShapes=umlLifeline;portConstraint=eastwest;newEdgeStyle={&quot;curved&quot;:0,&quot;rounded&quot;:0};strokeColor=#000000;fillColor=#dae8fc;" parent="RrkPj0W30C4GCfY4QQFr-5" vertex="1">
          <mxGeometry x="90" y="450" width="10" height="50" as="geometry" />
        </mxCell>
        <mxCell id="RrkPj0W30C4GCfY4QQFr-43" value="" style="html=1;points=[[0,0,0,0,5],[0,1,0,0,-5],[1,0,0,0,5],[1,1,0,0,-5]];perimeter=orthogonalPerimeter;outlineConnect=0;targetShapes=umlLifeline;portConstraint=eastwest;newEdgeStyle={&quot;curved&quot;:0,&quot;rounded&quot;:0};strokeColor=#000000;fillColor=#dae8fc;" parent="RrkPj0W30C4GCfY4QQFr-5" vertex="1">
          <mxGeometry x="90" y="810" width="10" height="50" as="geometry" />
        </mxCell>
        <mxCell id="RrkPj0W30C4GCfY4QQFr-50" value="" style="html=1;points=[[0,0,0,0,5],[0,1,0,0,-5],[1,0,0,0,5],[1,1,0,0,-5]];perimeter=orthogonalPerimeter;outlineConnect=0;targetShapes=umlLifeline;portConstraint=eastwest;newEdgeStyle={&quot;curved&quot;:0,&quot;rounded&quot;:0};strokeColor=#000000;fillColor=#dae8fc;" parent="RrkPj0W30C4GCfY4QQFr-5" vertex="1">
          <mxGeometry x="90" y="960" width="10" height="50" as="geometry" />
        </mxCell>
        <mxCell id="RrkPj0W30C4GCfY4QQFr-65" value="" style="html=1;points=[[0,0,0,0,5],[0,1,0,0,-5],[1,0,0,0,5],[1,1,0,0,-5]];perimeter=orthogonalPerimeter;outlineConnect=0;targetShapes=umlLifeline;portConstraint=eastwest;newEdgeStyle={&quot;curved&quot;:0,&quot;rounded&quot;:0};strokeColor=#000000;fillColor=#dae8fc;" parent="RrkPj0W30C4GCfY4QQFr-5" vertex="1">
          <mxGeometry x="90" y="1290" width="10" height="50" as="geometry" />
        </mxCell>
        <mxCell id="RrkPj0W30C4GCfY4QQFr-81" value="" style="html=1;points=[[0,0,0,0,5],[0,1,0,0,-5],[1,0,0,0,5],[1,1,0,0,-5]];perimeter=orthogonalPerimeter;outlineConnect=0;targetShapes=umlLifeline;portConstraint=eastwest;newEdgeStyle={&quot;curved&quot;:0,&quot;rounded&quot;:0};strokeColor=#000000;fillColor=#dae8fc;" parent="RrkPj0W30C4GCfY4QQFr-5" vertex="1">
          <mxGeometry x="90" y="1480" width="10" height="90" as="geometry" />
        </mxCell>
        <mxCell id="RrkPj0W30C4GCfY4QQFr-9" value="clicks &quot;Completed Transactions&quot;" style="html=1;verticalAlign=bottom;startArrow=oval;startFill=1;endArrow=block;startSize=8;curved=0;rounded=0;fontSize=13;fontStyle=2;labelBackgroundColor=none;" parent="1" edge="1">
          <mxGeometry width="60" relative="1" as="geometry">
            <mxPoint x="-810" y="90" as="sourcePoint" />
            <mxPoint x="-595" y="90" as="targetPoint" />
          </mxGeometry>
        </mxCell>
        <mxCell id="RrkPj0W30C4GCfY4QQFr-10" value="showCompletedTransactions()" style="html=1;verticalAlign=bottom;startArrow=oval;startFill=1;endArrow=block;startSize=8;curved=0;rounded=0;fontSize=13;fontStyle=2;labelBackgroundColor=none;" parent="1" edge="1">
          <mxGeometry width="60" relative="1" as="geometry">
            <mxPoint x="-590" y="120" as="sourcePoint" />
            <mxPoint x="-350" y="120" as="targetPoint" />
          </mxGeometry>
        </mxCell>
        <mxCell id="RrkPj0W30C4GCfY4QQFr-11" value="SimpleReaderService" style="shape=umlLifeline;perimeter=lifelinePerimeter;whiteSpace=wrap;html=1;container=1;dropTarget=0;collapsible=0;recursiveResize=0;outlineConnect=0;portConstraint=eastwest;newEdgeStyle={&quot;curved&quot;:0,&quot;rounded&quot;:0};fontSize=14;fontStyle=1;fillColor=#dae8fc;strokeColor=#6c8ebf;" parent="1" vertex="1">
          <mxGeometry x="-170" y="-40" width="190" height="2210" as="geometry" />
        </mxCell>
        <mxCell id="RrkPj0W30C4GCfY4QQFr-12" value="" style="html=1;points=[[0,0,0,0,5],[0,1,0,0,-5],[1,0,0,0,5],[1,1,0,0,-5]];perimeter=orthogonalPerimeter;outlineConnect=0;targetShapes=umlLifeline;portConstraint=eastwest;newEdgeStyle={&quot;curved&quot;:0,&quot;rounded&quot;:0};strokeColor=#000000;fillColor=#dae8fc;" parent="RrkPj0W30C4GCfY4QQFr-11" vertex="1">
          <mxGeometry x="90" y="170" width="10" height="100" as="geometry" />
        </mxCell>
        <mxCell id="RrkPj0W30C4GCfY4QQFr-67" value="" style="html=1;points=[[0,0,0,0,5],[0,1,0,0,-5],[1,0,0,0,5],[1,1,0,0,-5]];perimeter=orthogonalPerimeter;outlineConnect=0;targetShapes=umlLifeline;portConstraint=eastwest;newEdgeStyle={&quot;curved&quot;:0,&quot;rounded&quot;:0};strokeColor=#000000;fillColor=#dae8fc;" parent="RrkPj0W30C4GCfY4QQFr-11" vertex="1">
          <mxGeometry x="90" y="1300" width="10" height="210" as="geometry" />
        </mxCell>
        <mxCell id="RrkPj0W30C4GCfY4QQFr-14" value="retrieveCompletedTransactions()" style="html=1;verticalAlign=bottom;startArrow=oval;startFill=1;endArrow=block;startSize=8;curved=0;rounded=0;fontSize=13;fontStyle=2;labelBackgroundColor=none;" parent="1" edge="1">
          <mxGeometry width="60" relative="1" as="geometry">
            <mxPoint x="-340" y="150" as="sourcePoint" />
            <mxPoint x="-75" y="150" as="targetPoint" />
          </mxGeometry>
        </mxCell>
        <mxCell id="RrkPj0W30C4GCfY4QQFr-15" value="Simple Reader" style="text;html=1;align=center;verticalAlign=middle;resizable=0;points=[];autosize=1;strokeColor=none;fillColor=none;fontSize=14;fontStyle=1" parent="1" vertex="1">
          <mxGeometry x="-880" y="-82" width="120" height="30" as="geometry" />
        </mxCell>
        <mxCell id="RrkPj0W30C4GCfY4QQFr-16" value="return Completed Transactions" style="html=1;verticalAlign=bottom;startArrow=oval;startFill=1;endArrow=block;startSize=8;curved=0;rounded=0;fontSize=13;fontStyle=2;labelBackgroundColor=none;" parent="1" edge="1">
          <mxGeometry width="60" relative="1" as="geometry">
            <mxPoint x="-75.5" y="196" as="sourcePoint" />
            <mxPoint x="-340" y="196" as="targetPoint" />
          </mxGeometry>
        </mxCell>
        <mxCell id="RrkPj0W30C4GCfY4QQFr-17" value="return Completed Transactions" style="html=1;verticalAlign=bottom;startArrow=oval;startFill=1;endArrow=block;startSize=8;curved=0;rounded=0;fontSize=13;fontStyle=2;labelBackgroundColor=none;" parent="1" target="RrkPj0W30C4GCfY4QQFr-4" edge="1">
          <mxGeometry width="60" relative="1" as="geometry">
            <mxPoint x="-345.5" y="220" as="sourcePoint" />
            <mxPoint x="-610" y="220" as="targetPoint" />
          </mxGeometry>
        </mxCell>
        <mxCell id="RrkPj0W30C4GCfY4QQFr-18" value="CompletedTransactions" style="shape=umlLifeline;perimeter=lifelinePerimeter;whiteSpace=wrap;html=1;container=1;dropTarget=0;collapsible=0;recursiveResize=0;outlineConnect=0;portConstraint=eastwest;newEdgeStyle={&quot;curved&quot;:0,&quot;rounded&quot;:0};fontSize=14;fontStyle=1;fillColor=#dae8fc;strokeColor=#6c8ebf;" parent="1" vertex="1">
          <mxGeometry x="40" y="-40" width="190" height="2210" as="geometry" />
        </mxCell>
        <mxCell id="RrkPj0W30C4GCfY4QQFr-19" value="" style="html=1;points=[[0,0,0,0,5],[0,1,0,0,-5],[1,0,0,0,5],[1,1,0,0,-5]];perimeter=orthogonalPerimeter;outlineConnect=0;targetShapes=umlLifeline;portConstraint=eastwest;newEdgeStyle={&quot;curved&quot;:0,&quot;rounded&quot;:0};strokeColor=#000000;fillColor=#dae8fc;" parent="RrkPj0W30C4GCfY4QQFr-18" vertex="1">
          <mxGeometry x="90" y="280" width="10" height="200" as="geometry" />
        </mxCell>
        <mxCell id="RrkPj0W30C4GCfY4QQFr-30" value="" style="html=1;points=[[0,0,0,0,5],[0,1,0,0,-5],[1,0,0,0,5],[1,1,0,0,-5]];perimeter=orthogonalPerimeter;outlineConnect=0;targetShapes=umlLifeline;portConstraint=eastwest;newEdgeStyle={&quot;curved&quot;:0,&quot;rounded&quot;:0};strokeColor=#000000;fillColor=#dae8fc;" parent="RrkPj0W30C4GCfY4QQFr-18" vertex="1">
          <mxGeometry x="90" y="580" width="10" height="50" as="geometry" />
        </mxCell>
        <mxCell id="RrkPj0W30C4GCfY4QQFr-35" value="" style="html=1;points=[[0,0,0,0,5],[0,1,0,0,-5],[1,0,0,0,5],[1,1,0,0,-5]];perimeter=orthogonalPerimeter;outlineConnect=0;targetShapes=umlLifeline;portConstraint=eastwest;newEdgeStyle={&quot;curved&quot;:0,&quot;rounded&quot;:0};strokeColor=#000000;fillColor=#dae8fc;" parent="RrkPj0W30C4GCfY4QQFr-18" vertex="1">
          <mxGeometry x="90" y="690" width="10" height="50" as="geometry" />
        </mxCell>
        <mxCell id="RrkPj0W30C4GCfY4QQFr-21" value="call" style="html=1;verticalAlign=bottom;startArrow=oval;startFill=1;endArrow=block;startSize=8;curved=0;rounded=0;fontSize=13;fontStyle=2;labelBackgroundColor=none;" parent="1" edge="1">
          <mxGeometry width="60" relative="1" as="geometry">
            <mxPoint x="-590.5" y="278" as="sourcePoint" />
            <mxPoint x="130" y="278" as="targetPoint" />
          </mxGeometry>
        </mxCell>
        <mxCell id="RrkPj0W30C4GCfY4QQFr-22" value="Selects Transaction to rate &amp;amp;&amp;nbsp;&lt;div&gt;clicks &quot;Rate User&quot;&lt;/div&gt;" style="html=1;verticalAlign=bottom;startArrow=oval;startFill=1;endArrow=block;startSize=8;curved=0;rounded=0;fontSize=13;fontStyle=2;labelBackgroundColor=none;" parent="1" edge="1">
          <mxGeometry width="60" relative="1" as="geometry">
            <mxPoint x="-810" y="386" as="sourcePoint" />
            <mxPoint x="134.5" y="386" as="targetPoint" />
          </mxGeometry>
        </mxCell>
        <mxCell id="RrkPj0W30C4GCfY4QQFr-23" value="alt" style="shape=umlFrame;whiteSpace=wrap;html=1;pointerEvents=0;" parent="1" vertex="1">
          <mxGeometry x="-910" y="320" width="1370" height="410" as="geometry" />
        </mxCell>
        <mxCell id="RrkPj0W30C4GCfY4QQFr-24" value="Rate User" style="text;html=1;align=center;verticalAlign=middle;resizable=0;points=[];autosize=1;fontSize=14;fontStyle=2;fillColor=#f8cecc;strokeColor=#b85450;" parent="1" vertex="1">
          <mxGeometry x="-765" y="340" width="90" height="30" as="geometry" />
        </mxCell>
        <mxCell id="RrkPj0W30C4GCfY4QQFr-25" value="Duplicate Rating to User" style="text;html=1;align=center;verticalAlign=middle;resizable=0;points=[];autosize=1;fontSize=14;fontStyle=2;fillColor=#f8cecc;strokeColor=#b85450;" parent="1" vertex="1">
          <mxGeometry x="-790" y="480" width="180" height="30" as="geometry" />
        </mxCell>
        <mxCell id="RrkPj0W30C4GCfY4QQFr-26" value="Unavailable User" style="text;html=1;align=center;verticalAlign=middle;resizable=0;points=[];autosize=1;fontSize=14;fontStyle=2;fillColor=#f8cecc;strokeColor=#b85450;" parent="1" vertex="1">
          <mxGeometry x="-785" y="600" width="130" height="30" as="geometry" />
        </mxCell>
        <mxCell id="RrkPj0W30C4GCfY4QQFr-28" value="showFormRating()" style="html=1;verticalAlign=bottom;startArrow=oval;startFill=1;endArrow=block;startSize=8;curved=0;rounded=0;fontSize=13;fontStyle=2;labelBackgroundColor=none;" parent="1" target="RrkPj0W30C4GCfY4QQFr-27" edge="1">
          <mxGeometry width="60" relative="1" as="geometry">
            <mxPoint x="129.99999999999955" y="426" as="sourcePoint" />
            <mxPoint x="-585" y="426" as="targetPoint" />
          </mxGeometry>
        </mxCell>
        <mxCell id="RrkPj0W30C4GCfY4QQFr-29" value="Selects Transaction to rate &amp;amp;&amp;nbsp;&lt;div&gt;clicks &quot;Rate User&quot;&lt;/div&gt;" style="html=1;verticalAlign=bottom;startArrow=oval;startFill=1;endArrow=block;startSize=8;curved=0;rounded=0;fontSize=13;fontStyle=2;labelBackgroundColor=none;" parent="1" edge="1">
          <mxGeometry width="60" relative="1" as="geometry">
            <mxPoint x="-810" y="560" as="sourcePoint" />
            <mxPoint x="134.5" y="560" as="targetPoint" />
          </mxGeometry>
        </mxCell>
        <mxCell id="RrkPj0W30C4GCfY4QQFr-31" value="DeniedRating" style="shape=umlLifeline;perimeter=lifelinePerimeter;whiteSpace=wrap;html=1;container=1;dropTarget=0;collapsible=0;recursiveResize=0;outlineConnect=0;portConstraint=eastwest;newEdgeStyle={&quot;curved&quot;:0,&quot;rounded&quot;:0};fontSize=14;fontStyle=1;fillColor=#dae8fc;strokeColor=#6c8ebf;" parent="1" vertex="1">
          <mxGeometry x="250" y="-40" width="100" height="2210" as="geometry" />
        </mxCell>
        <mxCell id="RrkPj0W30C4GCfY4QQFr-32" value="" style="html=1;points=[[0,0,0,0,5],[0,1,0,0,-5],[1,0,0,0,5],[1,1,0,0,-5]];perimeter=orthogonalPerimeter;outlineConnect=0;targetShapes=umlLifeline;portConstraint=eastwest;newEdgeStyle={&quot;curved&quot;:0,&quot;rounded&quot;:0};strokeColor=#000000;fillColor=#dae8fc;" parent="RrkPj0W30C4GCfY4QQFr-31" vertex="1">
          <mxGeometry x="45" y="600" width="10" height="40" as="geometry" />
        </mxCell>
        <mxCell id="RrkPj0W30C4GCfY4QQFr-34" value="call" style="html=1;verticalAlign=bottom;startArrow=oval;startFill=1;endArrow=block;startSize=8;curved=0;rounded=0;fontSize=13;fontStyle=2;labelBackgroundColor=none;" parent="1" target="RrkPj0W30C4GCfY4QQFr-32" edge="1">
          <mxGeometry width="60" relative="1" as="geometry">
            <mxPoint x="140" y="577" as="sourcePoint" />
            <mxPoint x="290" y="577" as="targetPoint" />
          </mxGeometry>
        </mxCell>
        <mxCell id="RrkPj0W30C4GCfY4QQFr-37" value="Selects Transaction to rate &amp;amp;&amp;nbsp;&lt;div&gt;clicks &quot;Rate User&quot;&lt;/div&gt;" style="html=1;verticalAlign=bottom;startArrow=oval;startFill=1;endArrow=block;startSize=8;curved=0;rounded=0;fontSize=13;fontStyle=2;labelBackgroundColor=none;" parent="1" edge="1">
          <mxGeometry width="60" relative="1" as="geometry">
            <mxPoint x="-810" y="670" as="sourcePoint" />
            <mxPoint x="134.5" y="670" as="targetPoint" />
          </mxGeometry>
        </mxCell>
        <mxCell id="RrkPj0W30C4GCfY4QQFr-38" value="call" style="html=1;verticalAlign=bottom;startArrow=oval;startFill=1;endArrow=block;startSize=8;curved=0;rounded=0;fontSize=13;fontStyle=2;labelBackgroundColor=none;" parent="1" target="RrkPj0W30C4GCfY4QQFr-39" edge="1">
          <mxGeometry width="60" relative="1" as="geometry">
            <mxPoint x="140" y="690" as="sourcePoint" />
            <mxPoint x="290" y="690" as="targetPoint" />
          </mxGeometry>
        </mxCell>
        <mxCell id="RrkPj0W30C4GCfY4QQFr-40" value="UserNotFound" style="shape=umlLifeline;perimeter=lifelinePerimeter;whiteSpace=wrap;html=1;container=1;dropTarget=0;collapsible=0;recursiveResize=0;outlineConnect=0;portConstraint=eastwest;newEdgeStyle={&quot;curved&quot;:0,&quot;rounded&quot;:0};fontSize=14;fontStyle=1;fillColor=#dae8fc;strokeColor=#6c8ebf;" parent="1" vertex="1">
          <mxGeometry x="360" y="-40" width="120" height="2210" as="geometry" />
        </mxCell>
        <mxCell id="RrkPj0W30C4GCfY4QQFr-39" value="" style="html=1;points=[[0,0,0,0,5],[0,1,0,0,-5],[1,0,0,0,5],[1,1,0,0,-5]];perimeter=orthogonalPerimeter;outlineConnect=0;targetShapes=umlLifeline;portConstraint=eastwest;newEdgeStyle={&quot;curved&quot;:0,&quot;rounded&quot;:0};strokeColor=#000000;fillColor=#dae8fc;" parent="RrkPj0W30C4GCfY4QQFr-40" vertex="1">
          <mxGeometry x="55" y="700" width="10" height="40" as="geometry" />
        </mxCell>
        <mxCell id="RrkPj0W30C4GCfY4QQFr-44" value="RateUser" style="shape=umlLifeline;perimeter=lifelinePerimeter;whiteSpace=wrap;html=1;container=1;dropTarget=0;collapsible=0;recursiveResize=0;outlineConnect=0;portConstraint=eastwest;newEdgeStyle={&quot;curved&quot;:0,&quot;rounded&quot;:0};fontSize=14;fontStyle=1;fillColor=#dae8fc;strokeColor=#6c8ebf;" parent="1" vertex="1">
          <mxGeometry x="520" y="-40" width="120" height="2210" as="geometry" />
        </mxCell>
        <mxCell id="RrkPj0W30C4GCfY4QQFr-45" value="" style="html=1;points=[[0,0,0,0,5],[0,1,0,0,-5],[1,0,0,0,5],[1,1,0,0,-5]];perimeter=orthogonalPerimeter;outlineConnect=0;targetShapes=umlLifeline;portConstraint=eastwest;newEdgeStyle={&quot;curved&quot;:0,&quot;rounded&quot;:0};strokeColor=#000000;fillColor=#dae8fc;" parent="RrkPj0W30C4GCfY4QQFr-44" vertex="1">
          <mxGeometry x="55" y="815" width="10" height="195" as="geometry" />
        </mxCell>
        <mxCell id="RrkPj0W30C4GCfY4QQFr-46" value="call" style="html=1;verticalAlign=bottom;startArrow=oval;startFill=1;endArrow=block;startSize=8;curved=0;rounded=0;fontSize=13;fontStyle=2;labelBackgroundColor=none;" parent="1" target="RrkPj0W30C4GCfY4QQFr-44" edge="1">
          <mxGeometry width="60" relative="1" as="geometry">
            <mxPoint x="-340" y="790" as="sourcePoint" />
            <mxPoint x="380.5" y="790" as="targetPoint" />
          </mxGeometry>
        </mxCell>
        <mxCell id="RrkPj0W30C4GCfY4QQFr-47" value="fill correct the form &amp;amp; click &quot;Submit Rating&quot;" style="html=1;verticalAlign=bottom;startArrow=oval;startFill=1;endArrow=block;startSize=8;curved=0;rounded=0;fontSize=13;fontStyle=2;labelBackgroundColor=none;" parent="1" edge="1">
          <mxGeometry width="60" relative="1" as="geometry">
            <mxPoint x="-816.1666666666665" y="894" as="sourcePoint" />
            <mxPoint x="579.5" y="894" as="targetPoint" />
          </mxGeometry>
        </mxCell>
        <mxCell id="RrkPj0W30C4GCfY4QQFr-48" value="alt" style="shape=umlFrame;whiteSpace=wrap;html=1;pointerEvents=0;" parent="1" vertex="1">
          <mxGeometry x="-920" y="810" width="1790" height="410" as="geometry" />
        </mxCell>
        <mxCell id="RrkPj0W30C4GCfY4QQFr-49" value="Fill correct the form" style="text;html=1;align=center;verticalAlign=middle;resizable=0;points=[];autosize=1;fontSize=14;fontStyle=2;fillColor=#f8cecc;strokeColor=#b85450;" parent="1" vertex="1">
          <mxGeometry x="-780" y="850" width="140" height="30" as="geometry" />
        </mxCell>
        <mxCell id="RrkPj0W30C4GCfY4QQFr-51" value="submitRating()" style="html=1;verticalAlign=bottom;startArrow=oval;startFill=1;endArrow=block;startSize=8;curved=0;rounded=0;fontSize=13;fontStyle=2;labelBackgroundColor=none;" parent="1" edge="1">
          <mxGeometry width="60" relative="1" as="geometry">
            <mxPoint x="575" y="939" as="sourcePoint" />
            <mxPoint x="-340" y="939" as="targetPoint" />
          </mxGeometry>
        </mxCell>
        <mxCell id="RrkPj0W30C4GCfY4QQFr-52" value="Fill incorrect the form" style="text;html=1;align=center;verticalAlign=middle;resizable=0;points=[];autosize=1;fontSize=14;fontStyle=2;fillColor=#f8cecc;strokeColor=#b85450;" parent="1" vertex="1">
          <mxGeometry x="-790" y="1000" width="150" height="30" as="geometry" />
        </mxCell>
        <mxCell id="RrkPj0W30C4GCfY4QQFr-53" value="fill incorrect the form &amp;amp; click &quot;Submit Rating&quot;" style="html=1;verticalAlign=bottom;startArrow=oval;startFill=1;endArrow=block;startSize=8;curved=0;rounded=0;fontSize=13;fontStyle=2;labelBackgroundColor=none;" parent="1" edge="1">
          <mxGeometry width="60" relative="1" as="geometry">
            <mxPoint x="-819.9966666666666" y="1064.37" as="sourcePoint" />
            <mxPoint x="575.67" y="1064.37" as="targetPoint" />
          </mxGeometry>
        </mxCell>
        <mxCell id="RrkPj0W30C4GCfY4QQFr-54" value="" style="html=1;points=[[0,0,0,0,5],[0,1,0,0,-5],[1,0,0,0,5],[1,1,0,0,-5]];perimeter=orthogonalPerimeter;outlineConnect=0;targetShapes=umlLifeline;portConstraint=eastwest;newEdgeStyle={&quot;curved&quot;:0,&quot;rounded&quot;:0};strokeColor=#000000;fillColor=#dae8fc;" parent="1" vertex="1">
          <mxGeometry x="575" y="1045" width="10" height="65" as="geometry" />
        </mxCell>
        <mxCell id="RrkPj0W30C4GCfY4QQFr-56" value="Denied" style="shape=umlLifeline;perimeter=lifelinePerimeter;whiteSpace=wrap;html=1;container=1;dropTarget=0;collapsible=0;recursiveResize=0;outlineConnect=0;portConstraint=eastwest;newEdgeStyle={&quot;curved&quot;:0,&quot;rounded&quot;:0};fontSize=14;fontStyle=1;fillColor=#dae8fc;strokeColor=#6c8ebf;" parent="1" vertex="1">
          <mxGeometry x="670" y="-40" width="100" height="2210" as="geometry" />
        </mxCell>
        <mxCell id="RrkPj0W30C4GCfY4QQFr-57" value="" style="html=1;points=[[0,0,0,0,5],[0,1,0,0,-5],[1,0,0,0,5],[1,1,0,0,-5]];perimeter=orthogonalPerimeter;outlineConnect=0;targetShapes=umlLifeline;portConstraint=eastwest;newEdgeStyle={&quot;curved&quot;:0,&quot;rounded&quot;:0};strokeColor=#000000;fillColor=#dae8fc;" parent="RrkPj0W30C4GCfY4QQFr-56" vertex="1">
          <mxGeometry x="45" y="1100" width="10" height="110" as="geometry" />
        </mxCell>
        <mxCell id="RrkPj0W30C4GCfY4QQFr-58" value="call" style="html=1;verticalAlign=bottom;startArrow=oval;startFill=1;endArrow=block;startSize=8;curved=0;rounded=0;fontSize=13;fontStyle=2;labelBackgroundColor=none;" parent="1" edge="1">
          <mxGeometry width="60" relative="1" as="geometry">
            <mxPoint x="585" y="1091" as="sourcePoint" />
            <mxPoint x="715" y="1091" as="targetPoint" />
          </mxGeometry>
        </mxCell>
        <mxCell id="RrkPj0W30C4GCfY4QQFr-61" value="call" style="html=1;verticalAlign=bottom;startArrow=oval;startFill=1;endArrow=block;startSize=8;curved=0;rounded=0;fontSize=13;fontStyle=2;labelBackgroundColor=none;" parent="1" edge="1">
          <mxGeometry width="60" relative="1" as="geometry">
            <mxPoint x="715" y="1160" as="sourcePoint" />
            <mxPoint x="585" y="1160" as="targetPoint" />
          </mxGeometry>
        </mxCell>
        <mxCell id="RrkPj0W30C4GCfY4QQFr-62" value="click &quot;Ok&quot;" style="html=1;verticalAlign=bottom;startArrow=oval;startFill=1;endArrow=block;startSize=8;curved=0;rounded=0;fontSize=13;fontStyle=2;labelBackgroundColor=none;" parent="1" edge="1">
          <mxGeometry width="60" relative="1" as="geometry">
            <mxPoint x="-810.6666666666665" y="1130" as="sourcePoint" />
            <mxPoint x="715" y="1130" as="targetPoint" />
          </mxGeometry>
        </mxCell>
        <mxCell id="RrkPj0W30C4GCfY4QQFr-63" value="" style="html=1;points=[[0,0,0,0,5],[0,1,0,0,-5],[1,0,0,0,5],[1,1,0,0,-5]];perimeter=orthogonalPerimeter;outlineConnect=0;targetShapes=umlLifeline;portConstraint=eastwest;newEdgeStyle={&quot;curved&quot;:0,&quot;rounded&quot;:0};strokeColor=#000000;fillColor=#dae8fc;" parent="1" vertex="1">
          <mxGeometry x="575" y="1140" width="10" height="65" as="geometry" />
        </mxCell>
        <mxCell id="RrkPj0W30C4GCfY4QQFr-64" value="fill correct the form &amp;amp; click &quot;Submit Rating&quot;" style="html=1;verticalAlign=bottom;startArrow=oval;startFill=1;endArrow=block;startSize=8;curved=0;rounded=0;fontSize=13;fontStyle=2;labelBackgroundColor=none;" parent="1" edge="1">
          <mxGeometry width="60" relative="1" as="geometry">
            <mxPoint x="-820.6666666666665" y="1180" as="sourcePoint" />
            <mxPoint x="575" y="1180" as="targetPoint" />
          </mxGeometry>
        </mxCell>
        <mxCell id="RrkPj0W30C4GCfY4QQFr-66" value="submitRating()" style="html=1;verticalAlign=bottom;startArrow=oval;startFill=1;endArrow=block;startSize=8;curved=0;rounded=0;fontSize=13;fontStyle=2;labelBackgroundColor=none;" parent="1" edge="1">
          <mxGeometry width="60" relative="1" as="geometry">
            <mxPoint x="-345.67647058823513" y="1276" as="sourcePoint" />
            <mxPoint x="-80" y="1276" as="targetPoint" />
          </mxGeometry>
        </mxCell>
        <mxCell id="RrkPj0W30C4GCfY4QQFr-68" value="SimpleReaderMapper" style="shape=umlLifeline;perimeter=lifelinePerimeter;whiteSpace=wrap;html=1;container=1;dropTarget=0;collapsible=0;recursiveResize=0;outlineConnect=0;portConstraint=eastwest;newEdgeStyle={&quot;curved&quot;:0,&quot;rounded&quot;:0};fontSize=14;fontStyle=1;fillColor=#dae8fc;strokeColor=#6c8ebf;" parent="1" vertex="1">
          <mxGeometry x="800" y="-40" width="190" height="2210" as="geometry" />
        </mxCell>
        <mxCell id="RrkPj0W30C4GCfY4QQFr-70" value="" style="html=1;points=[[0,0,0,0,5],[0,1,0,0,-5],[1,0,0,0,5],[1,1,0,0,-5]];perimeter=orthogonalPerimeter;outlineConnect=0;targetShapes=umlLifeline;portConstraint=eastwest;newEdgeStyle={&quot;curved&quot;:0,&quot;rounded&quot;:0};strokeColor=#000000;fillColor=#dae8fc;" parent="RrkPj0W30C4GCfY4QQFr-68" vertex="1">
          <mxGeometry x="90" y="1327" width="10" height="50" as="geometry" />
        </mxCell>
        <mxCell id="RrkPj0W30C4GCfY4QQFr-71" value="DBManager" style="shape=umlLifeline;perimeter=lifelinePerimeter;whiteSpace=wrap;html=1;container=1;dropTarget=0;collapsible=0;recursiveResize=0;outlineConnect=0;portConstraint=eastwest;newEdgeStyle={&quot;curved&quot;:0,&quot;rounded&quot;:0};fontSize=14;fontStyle=1;fillColor=#dae8fc;strokeColor=#6c8ebf;" parent="1" vertex="1">
          <mxGeometry x="1030" y="-40" width="100" height="2250" as="geometry" />
        </mxCell>
        <mxCell id="RrkPj0W30C4GCfY4QQFr-73" value="" style="html=1;points=[[0,0,0,0,5],[0,1,0,0,-5],[1,0,0,0,5],[1,1,0,0,-5]];perimeter=orthogonalPerimeter;outlineConnect=0;targetShapes=umlLifeline;portConstraint=eastwest;newEdgeStyle={&quot;curved&quot;:0,&quot;rounded&quot;:0};strokeColor=#000000;fillColor=#dae8fc;" parent="RrkPj0W30C4GCfY4QQFr-71" vertex="1">
          <mxGeometry x="45" y="1330" width="10" height="50" as="geometry" />
        </mxCell>
        <mxCell id="RrkPj0W30C4GCfY4QQFr-74" value="saveRating()" style="html=1;verticalAlign=bottom;startArrow=oval;startFill=1;endArrow=block;startSize=8;curved=0;rounded=0;fontSize=13;fontStyle=2;labelBackgroundColor=none;" parent="1" edge="1">
          <mxGeometry width="60" relative="1" as="geometry">
            <mxPoint x="-76.03846153846189" y="1305" as="sourcePoint" />
            <mxPoint x="894.5" y="1305" as="targetPoint" />
          </mxGeometry>
        </mxCell>
        <mxCell id="RrkPj0W30C4GCfY4QQFr-75" value="save" style="html=1;verticalAlign=bottom;startArrow=oval;startFill=1;endArrow=block;startSize=8;curved=0;rounded=0;fontSize=13;fontStyle=2;labelBackgroundColor=none;" parent="1" target="RrkPj0W30C4GCfY4QQFr-71" edge="1">
          <mxGeometry width="60" relative="1" as="geometry">
            <mxPoint x="900" y="1320" as="sourcePoint" />
            <mxPoint x="1030" y="1320" as="targetPoint" />
          </mxGeometry>
        </mxCell>
        <mxCell id="RrkPj0W30C4GCfY4QQFr-76" value="sendEmail()" style="html=1;align=left;spacingLeft=2;endArrow=block;rounded=0;edgeStyle=orthogonalEdgeStyle;curved=0;rounded=0;fontSize=13;fontStyle=2" parent="1" edge="1">
          <mxGeometry relative="1" as="geometry">
            <mxPoint x="-70" y="1330" as="sourcePoint" />
            <Array as="points">
              <mxPoint x="-40" y="1360" />
            </Array>
            <mxPoint x="-65" y="1360.0588235294122" as="targetPoint" />
          </mxGeometry>
        </mxCell>
        <mxCell id="RrkPj0W30C4GCfY4QQFr-77" value="addPoints()" style="html=1;align=left;spacingLeft=2;endArrow=block;rounded=0;edgeStyle=orthogonalEdgeStyle;curved=0;rounded=0;fontSize=13;fontStyle=2" parent="1" edge="1">
          <mxGeometry relative="1" as="geometry">
            <mxPoint x="-70" y="1380" as="sourcePoint" />
            <Array as="points">
              <mxPoint x="-40" y="1410" />
            </Array>
            <mxPoint x="-65" y="1410.0588235294122" as="targetPoint" />
          </mxGeometry>
        </mxCell>
        <mxCell id="RrkPj0W30C4GCfY4QQFr-78" value="Completed" style="shape=umlLifeline;perimeter=lifelinePerimeter;whiteSpace=wrap;html=1;container=1;dropTarget=0;collapsible=0;recursiveResize=0;outlineConnect=0;portConstraint=eastwest;newEdgeStyle={&quot;curved&quot;:0,&quot;rounded&quot;:0};fontSize=14;fontStyle=1;fillColor=#dae8fc;strokeColor=#6c8ebf;" parent="1" vertex="1">
          <mxGeometry x="1160" y="-40" width="100" height="2210" as="geometry" />
        </mxCell>
        <mxCell id="RrkPj0W30C4GCfY4QQFr-79" value="" style="html=1;points=[[0,0,0,0,5],[0,1,0,0,-5],[1,0,0,0,5],[1,1,0,0,-5]];perimeter=orthogonalPerimeter;outlineConnect=0;targetShapes=umlLifeline;portConstraint=eastwest;newEdgeStyle={&quot;curved&quot;:0,&quot;rounded&quot;:0};strokeColor=#000000;fillColor=#dae8fc;" parent="RrkPj0W30C4GCfY4QQFr-78" vertex="1">
          <mxGeometry x="45" y="1500" width="10" height="70" as="geometry" />
        </mxCell>
        <mxCell id="RrkPj0W30C4GCfY4QQFr-80" value="call" style="html=1;verticalAlign=bottom;startArrow=oval;startFill=1;endArrow=block;startSize=8;curved=0;rounded=0;fontSize=13;fontStyle=2;labelBackgroundColor=none;" parent="1" source="RrkPj0W30C4GCfY4QQFr-81" target="RrkPj0W30C4GCfY4QQFr-78" edge="1">
          <mxGeometry width="60" relative="1" as="geometry">
            <mxPoint x="-139.99846153846187" y="1530" as="sourcePoint" />
            <mxPoint x="830.54" y="1530" as="targetPoint" />
          </mxGeometry>
        </mxCell>
        <mxCell id="RrkPj0W30C4GCfY4QQFr-83" value="call" style="html=1;verticalAlign=bottom;startArrow=oval;startFill=1;endArrow=block;startSize=8;curved=0;rounded=0;fontSize=13;fontStyle=2;labelBackgroundColor=none;exitX=0;exitY=1;exitDx=0;exitDy=-5;exitPerimeter=0;" parent="1" edge="1">
          <mxGeometry width="60" relative="1" as="geometry">
            <mxPoint x="-80" y="1458.9999999999995" as="sourcePoint" />
            <mxPoint x="-340" y="1458.9999999999995" as="targetPoint" />
          </mxGeometry>
        </mxCell>
      </root>
    </mxGraphModel>
  </diagram>
</mxfile>
